<svg width="44" height="44" viewBox="0 0 44 44" fill="none" xmlns="http://www.w3.org/2000/svg">
<g clip-path="url(#clip0)">
<path d="M16.5 41.25V41.9375L14.4375 43.3125H29.5625L27.5 41.9375V41.25" stroke="url(#paint0_linear)" stroke-width="1.39833" stroke-miterlimit="10" stroke-linecap="square" stroke-linejoin="round"/>
<path d="M43.3125 19.25V36.4375C43.3125 37.6063 42.4188 38.5 41.25 38.5H2.75C1.58125 38.5 0.6875 37.6063 0.6875 36.4375V6.1875C0.6875 5.01875 1.58125 4.125 2.75 4.125H17.875" stroke="url(#paint1_linear)" stroke-width="1.39833" stroke-miterlimit="10" stroke-linecap="square" stroke-linejoin="round"/>
<path d="M39.1875 19.25V31.625H4.8125V8.25H17.875" stroke="url(#paint2_linear)" stroke-width="1.39833" stroke-miterlimit="10" stroke-linecap="square" stroke-linejoin="round"/>
<path d="M22 8.9375V2.0625C22 1.30625 22.6187 0.6875 23.375 0.6875H41.9375C42.6938 0.6875 43.3125 1.30625 43.3125 2.0625V13.75C43.3125 14.5063 42.6938 15.125 41.9375 15.125H32.3125L26.8125 19.9375V15.125H25.4375" stroke="url(#paint3_linear)" stroke-width="1.39833" stroke-miterlimit="10" stroke-linecap="square" stroke-linejoin="round"/>
<path d="M27.8442 8.9375C28.4138 8.9375 28.8755 8.47579 28.8755 7.90625C28.8755 7.33671 28.4138 6.875 27.8442 6.875C27.2747 6.875 26.813 7.33671 26.813 7.90625C26.813 8.47579 27.2747 8.9375 27.8442 8.9375Z" fill="url(#paint4_linear)"/>
<path d="M32.6567 8.9375C33.2263 8.9375 33.688 8.47579 33.688 7.90625C33.688 7.33671 33.2263 6.875 32.6567 6.875C32.0872 6.875 31.6255 7.33671 31.6255 7.90625C31.6255 8.47579 32.0872 8.9375 32.6567 8.9375Z" fill="#1822B7"/>
<path d="M32.6567 8.9375C33.2263 8.9375 33.688 8.47579 33.688 7.90625C33.688 7.33671 33.2263 6.875 32.6567 6.875C32.0872 6.875 31.6255 7.33671 31.6255 7.90625C31.6255 8.47579 32.0872 8.9375 32.6567 8.9375Z" fill="url(#paint5_linear)"/>
<path d="M37.4687 8.9375C38.0383 8.9375 38.5 8.47579 38.5 7.90625C38.5 7.33671 38.0383 6.875 37.4687 6.875C36.8992 6.875 36.4375 7.33671 36.4375 7.90625C36.4375 8.47579 36.8992 8.9375 37.4687 8.9375Z" fill="#1822B7"/>
<path d="M37.4687 8.9375C38.0383 8.9375 38.5 8.47579 38.5 7.90625C38.5 7.33671 38.0383 6.875 37.4687 6.875C36.8992 6.875 36.4375 7.33671 36.4375 7.90625C36.4375 8.47579 36.8992 8.9375 37.4687 8.9375Z" fill="url(#paint6_linear)"/>
<path d="M6.875 30.9375C6.875 30.9375 7.08125 27.4312 9.625 26.125L14.4375 24.0625C14.4375 24.0625 15.8125 24.75 17.875 24.75C19.9375 24.75 21.3125 24.0625 21.3125 24.0625L26.125 26.125C28.6688 27.4312 28.875 30.9375 28.875 30.9375" stroke="url(#paint7_linear)" stroke-width="1.39833" stroke-miterlimit="10" stroke-linecap="round" stroke-linejoin="round"/>
<path d="M19.9374 21.3125C21.9999 19.9375 21.9999 19.0438 22.2062 17.05C22.3437 15.95 22.4124 14.7813 21.8624 13.8188C21.3812 12.925 20.4874 12.3062 19.5249 11.9625C19.0437 11.7562 18.4249 11.6875 17.8749 11.6875C17.3249 11.6875 16.7062 11.7562 16.2249 11.9625C15.2624 12.3062 14.3687 12.925 13.8874 13.8188C13.3374 14.7813 13.4062 15.95 13.5437 17.05C13.7499 19.0438 13.7499 19.9375 15.8124 21.3125" stroke="url(#paint8_linear)" stroke-width="1.39833" stroke-miterlimit="10" stroke-linecap="round" stroke-linejoin="round"/>
<path d="M19.25 24.75C19.9375 25.4375 19.6625 27.4313 19.25 28.1875C19.25 28.1875 19.9375 29.7688 19.9375 30.9375" stroke="url(#paint9_linear)" stroke-width="1.39833" stroke-miterlimit="10" stroke-linecap="round" stroke-linejoin="round"/>
<path d="M15.8125 30.9375C15.8125 29.7688 16.5 28.1875 16.5 28.1875C16.0875 27.4313 15.8125 25.4375 16.5 24.75" stroke="url(#paint10_linear)" stroke-width="1.39833" stroke-miterlimit="10" stroke-linecap="round" stroke-linejoin="round"/>
</g>
<defs>
<linearGradient id="paint0_linear" x1="22" y1="41.25" x2="22" y2="43.3125" gradientUnits="userSpaceOnUse">
<stop stop-color="#CA9147"/>
<stop offset="1" stop-color="#D1964A"/>
</linearGradient>
<linearGradient id="paint1_linear" x1="22" y1="4.125" x2="22" y2="38.5" gradientUnits="userSpaceOnUse">
<stop stop-color="#CA9147"/>
<stop offset="1" stop-color="#D1964A"/>
</linearGradient>
<linearGradient id="paint2_linear" x1="22" y1="8.25" x2="22" y2="31.625" gradientUnits="userSpaceOnUse">
<stop stop-color="#CA9147"/>
<stop offset="1" stop-color="#D1964A"/>
</linearGradient>
<linearGradient id="paint3_linear" x1="32.6562" y1="0.6875" x2="32.6562" y2="19.9375" gradientUnits="userSpaceOnUse">
<stop stop-color="#CA9147"/>
<stop offset="1" stop-color="#D1964A"/>
</linearGradient>
<linearGradient id="paint4_linear" x1="27.8442" y1="6.875" x2="27.8442" y2="8.9375" gradientUnits="userSpaceOnUse">
<stop stop-color="#D1964A"/>
<stop offset="1" stop-color="#CA9147"/>
</linearGradient>
<linearGradient id="paint5_linear" x1="32.6567" y1="6.875" x2="32.6567" y2="8.9375" gradientUnits="userSpaceOnUse">
<stop stop-color="#D1964A"/>
<stop offset="1" stop-color="#CA9147"/>
</linearGradient>
<linearGradient id="paint6_linear" x1="37.4687" y1="6.875" x2="37.4687" y2="8.9375" gradientUnits="userSpaceOnUse">
<stop stop-color="#D1964A"/>
<stop offset="1" stop-color="#CA9147"/>
</linearGradient>
<linearGradient id="paint7_linear" x1="17.875" y1="24.0625" x2="17.875" y2="30.9375" gradientUnits="userSpaceOnUse">
<stop stop-color="#CA9147"/>
<stop offset="1" stop-color="#D1964A"/>
</linearGradient>
<linearGradient id="paint8_linear" x1="17.8749" y1="11.6875" x2="17.8749" y2="21.3125" gradientUnits="userSpaceOnUse">
<stop stop-color="#CA9147"/>
<stop offset="1" stop-color="#D1964A"/>
</linearGradient>
<linearGradient id="paint9_linear" x1="19.5938" y1="24.75" x2="19.5938" y2="30.9375" gradientUnits="userSpaceOnUse">
<stop stop-color="#CA9147"/>
<stop offset="1" stop-color="#D1964A"/>
</linearGradient>
<linearGradient id="paint10_linear" x1="16.1562" y1="24.75" x2="16.1562" y2="30.9375" gradientUnits="userSpaceOnUse">
<stop stop-color="#CA9147"/>
<stop offset="1" stop-color="#D1964A"/>
</linearGradient>
<clipPath id="clip0">
<rect width="44" height="44" fill="white"/>
</clipPath>
</defs>
</svg>
