<svg width="44" height="44" viewBox="0 0 44 44" fill="none" xmlns="http://www.w3.org/2000/svg">
<g clip-path="url(#clip0)">
<path d="M23.375 43.3125H2.0625C1.30625 43.3125 0.6875 42.6938 0.6875 41.9375V2.0625C0.6875 1.30625 1.30625 0.6875 2.0625 0.6875H31.625C32.3813 0.6875 33 1.30625 33 2.0625V17.875" stroke="url(#paint0_linear)" stroke-width="1.39833" stroke-miterlimit="10" stroke-linecap="round" stroke-linejoin="round"/>
<path d="M5.5 5.5V12.375H28.1875V5.5" stroke="url(#paint1_linear)" stroke-width="1.39833" stroke-miterlimit="10" stroke-linecap="round" stroke-linejoin="round"/>
<path d="M19.25 39.1875H6.875C6.11875 39.1875 5.5 38.5688 5.5 37.8125V17.875C5.5 17.1188 6.11875 16.5 6.875 16.5H26.8125C27.5688 16.5 28.1875 17.1188 28.1875 17.875" stroke="url(#paint2_linear)" stroke-width="1.39833" stroke-miterlimit="10" stroke-linecap="round" stroke-linejoin="round"/>
<path d="M9.625 24.0625H19.25" stroke="url(#paint3_linear)" stroke-width="1.39833" stroke-miterlimit="10" stroke-linecap="round" stroke-linejoin="round"/>
<path d="M13.0625 16.5V39.1875" stroke="url(#paint4_linear)" stroke-width="1.39833" stroke-miterlimit="10" stroke-linecap="round" stroke-linejoin="round"/>
<path d="M20.625 16.5V18.5625" stroke="url(#paint5_linear)" stroke-width="1.39833" stroke-miterlimit="10" stroke-linecap="round" stroke-linejoin="round"/>
<path d="M9.625 31.625H16.5" stroke="url(#paint6_linear)" stroke-width="1.39833" stroke-miterlimit="10" stroke-linecap="round" stroke-linejoin="round"/>
<path d="M22 4.125H23.375" stroke="url(#paint7_linear)" stroke-width="1.39833" stroke-miterlimit="10" stroke-linecap="round" stroke-linejoin="round"/>
<path d="M22 9.625H23.375" stroke="url(#paint8_linear)" stroke-width="1.39833" stroke-miterlimit="10" stroke-linecap="round" stroke-linejoin="round"/>
<path d="M20.625 4.8125V6.1875" stroke="url(#paint9_linear)" stroke-width="1.39833" stroke-miterlimit="10" stroke-linecap="round" stroke-linejoin="round"/>
<path d="M24.75 4.8125V6.1875" stroke="url(#paint10_linear)" stroke-width="1.39833" stroke-miterlimit="10" stroke-linecap="round" stroke-linejoin="round"/>
<path d="M20.625 7.5625V8.9375" stroke="url(#paint11_linear)" stroke-width="1.39833" stroke-miterlimit="10" stroke-linecap="round" stroke-linejoin="round"/>
<path d="M24.75 7.5625V8.9375" stroke="url(#paint12_linear)" stroke-width="1.39833" stroke-miterlimit="10" stroke-linecap="round" stroke-linejoin="round"/>
<path d="M33.2062 43.3124L32.7937 42.6936L28.2562 41.3186C28.0499 41.2499 27.8437 41.1811 27.7062 41.1124C25.8499 40.1499 24.3374 38.6374 23.1687 36.9186L21.1062 33.7561C20.4874 32.8624 20.1437 32.1061 21.0374 31.4874C21.9999 30.8686 24.4062 31.4186 25.0249 32.3124L26.3312 34.3061L17.9437 21.7936C17.3249 20.8999 17.5999 19.6624 18.5624 19.0436C19.5249 18.4249 20.7624 18.6311 21.3124 19.5249L26.0562 26.6749L25.1624 25.2999C24.5437 24.4061 24.8187 23.1686 25.7812 22.5499C26.7437 21.9311 27.9812 22.1374 28.5312 23.0311L29.9062 25.0936L29.4249 24.3374C28.8062 23.4437 29.0812 22.2061 30.0437 21.5874C31.0062 20.9686 32.2437 21.1749 32.7937 22.0686L34.1687 24.1999L33.6187 23.3749C32.9999 22.4811 33.2749 21.2436 34.2374 20.6249C35.1999 20.0061 36.4374 20.2124 36.9874 21.1061L40.0124 25.6436C41.5249 27.9811 42.4874 30.5249 42.9687 33.2749C43.0374 33.5499 43.0374 33.8936 43.0374 34.1686L42.8999 35.9561L43.3124 36.5749" stroke="url(#paint13_linear)" stroke-width="1.39833" stroke-miterlimit="10" stroke-linecap="round" stroke-linejoin="round"/>
</g>
<defs>
<linearGradient id="paint0_linear" x1="16.8438" y1="0.6875" x2="16.8438" y2="43.3125" gradientUnits="userSpaceOnUse">
<stop stop-color="#CA9147"/>
<stop offset="1" stop-color="#D1964A"/>
</linearGradient>
<linearGradient id="paint1_linear" x1="16.8438" y1="5.5" x2="16.8438" y2="12.375" gradientUnits="userSpaceOnUse">
<stop stop-color="#CA9147"/>
<stop offset="1" stop-color="#D1964A"/>
</linearGradient>
<linearGradient id="paint2_linear" x1="16.8438" y1="16.5" x2="16.8438" y2="39.1875" gradientUnits="userSpaceOnUse">
<stop stop-color="#CA9147"/>
<stop offset="1" stop-color="#D1964A"/>
</linearGradient>
<linearGradient id="paint3_linear" x1="14.4375" y1="24.0625" x2="14.4375" y2="25.0625" gradientUnits="userSpaceOnUse">
<stop stop-color="#CA9147"/>
<stop offset="1" stop-color="#D1964A"/>
</linearGradient>
<linearGradient id="paint4_linear" x1="13.5625" y1="16.5" x2="13.5625" y2="39.1875" gradientUnits="userSpaceOnUse">
<stop stop-color="#CA9147"/>
<stop offset="1" stop-color="#D1964A"/>
</linearGradient>
<linearGradient id="paint5_linear" x1="21.125" y1="16.5" x2="21.125" y2="18.5625" gradientUnits="userSpaceOnUse">
<stop stop-color="#CA9147"/>
<stop offset="1" stop-color="#D1964A"/>
</linearGradient>
<linearGradient id="paint6_linear" x1="13.0625" y1="31.625" x2="13.0625" y2="32.625" gradientUnits="userSpaceOnUse">
<stop stop-color="#CA9147"/>
<stop offset="1" stop-color="#D1964A"/>
</linearGradient>
<linearGradient id="paint7_linear" x1="22.6875" y1="4.125" x2="22.6875" y2="5.125" gradientUnits="userSpaceOnUse">
<stop stop-color="#CA9147"/>
<stop offset="1" stop-color="#D1964A"/>
</linearGradient>
<linearGradient id="paint8_linear" x1="22.6875" y1="9.625" x2="22.6875" y2="10.625" gradientUnits="userSpaceOnUse">
<stop stop-color="#CA9147"/>
<stop offset="1" stop-color="#D1964A"/>
</linearGradient>
<linearGradient id="paint9_linear" x1="21.125" y1="4.8125" x2="21.125" y2="6.1875" gradientUnits="userSpaceOnUse">
<stop stop-color="#CA9147"/>
<stop offset="1" stop-color="#D1964A"/>
</linearGradient>
<linearGradient id="paint10_linear" x1="25.25" y1="4.8125" x2="25.25" y2="6.1875" gradientUnits="userSpaceOnUse">
<stop stop-color="#CA9147"/>
<stop offset="1" stop-color="#D1964A"/>
</linearGradient>
<linearGradient id="paint11_linear" x1="21.125" y1="7.5625" x2="21.125" y2="8.9375" gradientUnits="userSpaceOnUse">
<stop stop-color="#CA9147"/>
<stop offset="1" stop-color="#D1964A"/>
</linearGradient>
<linearGradient id="paint12_linear" x1="25.25" y1="7.5625" x2="25.25" y2="8.9375" gradientUnits="userSpaceOnUse">
<stop stop-color="#CA9147"/>
<stop offset="1" stop-color="#D1964A"/>
</linearGradient>
<linearGradient id="paint13_linear" x1="30.4628" y1="18.688" x2="30.4628" y2="43.3124" gradientUnits="userSpaceOnUse">
<stop stop-color="#CA9147"/>
<stop offset="1" stop-color="#D1964A"/>
</linearGradient>
<clipPath id="clip0">
<rect width="44" height="44" fill="white"/>
</clipPath>
</defs>
</svg>
