<svg width="268" height="269" viewBox="0 0 268 269" fill="none" xmlns="http://www.w3.org/2000/svg">
<path d="M234 250.336C234.046 247.082 235.052 243.914 236.893 241.231C238.734 238.548 241.328 236.469 244.347 235.255C247.367 234.042 250.678 233.749 253.863 234.412C257.049 235.075 259.968 236.666 262.252 238.984C264.536 241.302 266.084 244.243 266.701 247.438C267.318 250.633 266.976 253.94 265.718 256.941C264.461 259.942 262.344 262.505 259.634 264.306C256.924 266.108 253.742 267.068 250.488 267.065C248.306 267.05 246.15 266.604 244.141 265.755C242.132 264.905 240.31 263.669 238.779 262.115C237.248 260.562 236.038 258.722 235.218 256.701C234.398 254.68 233.984 252.517 234 250.336Z" stroke="white" stroke-width="2"/>
<path d="M234 250.336C234.046 247.082 235.052 243.914 236.893 241.231C238.734 238.548 241.328 236.469 244.347 235.255C247.367 234.042 250.678 233.749 253.863 234.412C257.049 235.075 259.968 236.666 262.252 238.984C264.536 241.302 266.084 244.243 266.701 247.438C267.318 250.633 266.976 253.94 265.718 256.941C264.461 259.942 262.344 262.505 259.634 264.306C256.924 266.108 253.742 267.068 250.488 267.065C248.306 267.05 246.15 266.604 244.141 265.755C242.132 264.905 240.31 263.669 238.779 262.115C237.248 260.562 236.038 258.722 235.218 256.701C234.398 254.68 233.984 252.517 234 250.336Z" stroke="url(#paint0_linear)" stroke-width="2"/>
<path d="M234 157.565C234 154.301 234.968 151.111 236.782 148.397C238.595 145.683 241.173 143.569 244.189 142.32C247.205 141.072 250.523 140.746 253.724 141.383C256.925 142.021 259.865 143.594 262.172 145.903C264.479 148.212 266.049 151.153 266.685 154.355C267.32 157.556 266.991 160.874 265.74 163.889C264.489 166.904 262.372 169.48 259.657 171.291C256.942 173.103 253.75 174.068 250.487 174.065C248.32 174.065 246.175 173.639 244.174 172.809C242.173 171.98 240.355 170.764 238.824 169.232C237.293 167.7 236.079 165.88 235.251 163.879C234.423 161.877 233.998 159.732 234 157.565Z" fill="url(#paint1_linear)"/>
<path d="M234 157.565C234 154.301 234.968 151.111 236.782 148.397C238.595 145.683 241.173 143.569 244.189 142.32C247.205 141.072 250.523 140.746 253.724 141.383C256.925 142.021 259.865 143.594 262.172 145.903C264.479 148.212 266.049 151.153 266.685 154.355C267.32 157.556 266.991 160.874 265.74 163.889C264.489 166.904 262.372 169.48 259.657 171.291C256.942 173.103 253.75 174.068 250.487 174.065C248.32 174.065 246.175 173.639 244.174 172.809C242.173 171.98 240.355 170.764 238.824 169.232C237.293 167.7 236.079 165.88 235.251 163.879C234.423 161.877 233.998 159.732 234 157.565Z" stroke="white" stroke-width="2"/>
<path d="M234 157.565C234 154.301 234.968 151.111 236.782 148.397C238.595 145.683 241.173 143.569 244.189 142.32C247.205 141.072 250.523 140.746 253.724 141.383C256.925 142.021 259.865 143.594 262.172 145.903C264.479 148.212 266.049 151.153 266.685 154.355C267.32 157.556 266.991 160.874 265.74 163.889C264.489 166.904 262.372 169.48 259.657 171.291C256.942 173.103 253.75 174.068 250.487 174.065C248.32 174.065 246.175 173.639 244.174 172.809C242.173 171.98 240.355 170.764 238.824 169.232C237.293 167.7 236.079 165.88 235.251 163.879C234.423 161.877 233.998 159.732 234 157.565Z" stroke="url(#paint2_linear)" stroke-width="2"/>
<path d="M234 19.5789C233.997 16.3144 234.963 13.1224 236.775 10.4069C238.587 7.69147 241.164 5.57453 244.179 4.32401C247.195 3.07349 250.514 2.7456 253.716 3.38182C256.918 4.01805 259.859 5.5898 262.167 7.89818C264.476 10.2066 266.047 13.1478 266.684 16.3498C267.32 19.5517 266.992 22.8704 265.741 25.8859C264.491 28.9015 262.374 31.4783 259.658 33.2903C256.943 35.1023 253.751 36.0681 250.487 36.0654C246.114 36.0654 241.921 34.3285 238.829 31.2366C235.737 28.1448 234 23.9514 234 19.5789V19.5789Z" stroke="white" stroke-width="2"/>
<path d="M234 19.5789C233.997 16.3144 234.963 13.1224 236.775 10.4069C238.587 7.69147 241.164 5.57453 244.179 4.32401C247.195 3.07349 250.514 2.7456 253.716 3.38182C256.918 4.01805 259.859 5.5898 262.167 7.89818C264.476 10.2066 266.047 13.1478 266.684 16.3498C267.32 19.5517 266.992 22.8704 265.741 25.8859C264.491 28.9015 262.374 31.4783 259.658 33.2903C256.943 35.1023 253.751 36.0681 250.487 36.0654C246.114 36.0654 241.921 34.3285 238.829 31.2366C235.737 28.1448 234 23.9514 234 19.5789V19.5789Z" stroke="url(#paint3_linear)" stroke-width="2"/>
<path d="M187 250.065C187 246.703 187.997 243.416 189.865 240.621C191.733 237.825 194.388 235.646 197.494 234.359C200.601 233.073 204.019 232.736 207.317 233.392C210.614 234.048 213.643 235.667 216.021 238.045C218.398 240.422 220.017 243.451 220.673 246.749C221.329 250.047 220.993 253.465 219.706 256.571C218.419 259.677 216.24 262.332 213.445 264.2C210.649 266.068 207.362 267.065 204 267.065C199.491 267.065 195.167 265.274 191.979 262.086C188.791 258.898 187 254.574 187 250.065V250.065Z" stroke="white" stroke-width="2"/>
<path d="M187 250.065C187 246.703 187.997 243.416 189.865 240.621C191.733 237.825 194.388 235.646 197.494 234.359C200.601 233.073 204.019 232.736 207.317 233.392C210.614 234.048 213.643 235.667 216.021 238.045C218.398 240.422 220.017 243.451 220.673 246.749C221.329 250.047 220.993 253.465 219.706 256.571C218.419 259.677 216.24 262.332 213.445 264.2C210.649 266.068 207.362 267.065 204 267.065C199.491 267.065 195.167 265.274 191.979 262.086C188.791 258.898 187 254.574 187 250.065V250.065Z" stroke="url(#paint4_linear)" stroke-width="2"/>
<path d="M187.002 158.298C186.955 154.927 187.913 151.617 189.753 148.791C191.592 145.965 194.231 143.75 197.333 142.427C200.435 141.105 203.86 140.735 207.173 141.364C210.486 141.994 213.537 143.594 215.937 145.962C218.338 148.33 219.981 151.358 220.656 154.662C221.331 157.966 221.008 161.396 219.729 164.516C218.449 167.636 216.271 170.305 213.47 172.183C210.67 174.061 207.374 175.065 204.002 175.065C201.784 175.081 199.585 174.66 197.531 173.826C195.476 172.992 193.606 171.762 192.027 170.205C190.448 168.648 189.192 166.795 188.329 164.752C187.467 162.709 187.016 160.516 187.002 158.298Z" stroke="white" stroke-width="2"/>
<path d="M187.002 158.298C186.955 154.927 187.913 151.617 189.753 148.791C191.592 145.965 194.231 143.75 197.333 142.427C200.435 141.105 203.86 140.735 207.173 141.364C210.486 141.994 213.537 143.594 215.937 145.962C218.338 148.33 219.981 151.358 220.656 154.662C221.331 157.966 221.008 161.396 219.729 164.516C218.449 167.636 216.271 170.305 213.47 172.183C210.67 174.061 207.374 175.065 204.002 175.065C201.784 175.081 199.585 174.66 197.531 173.826C195.476 172.992 193.606 171.762 192.027 170.205C190.448 168.648 189.192 166.795 188.329 164.752C187.467 162.709 187.016 160.516 187.002 158.298Z" stroke="url(#paint5_linear)" stroke-width="2"/>
<path d="M187 112.065C187 108.703 187.997 105.416 189.865 102.621C191.733 99.8251 194.388 97.6462 197.494 96.3595C200.601 95.0728 204.019 94.7361 207.317 95.3921C210.614 96.048 213.643 97.6671 216.021 100.045C218.398 102.422 220.017 105.451 220.673 108.749C221.329 112.047 220.993 115.465 219.706 118.571C218.419 121.677 216.24 124.332 213.445 126.2C210.649 128.068 207.362 129.065 204 129.065C199.491 129.065 195.167 127.274 191.979 124.086C188.791 120.898 187 116.574 187 112.065Z" fill="url(#paint6_linear)"/>
<path d="M187 112.065C187 108.703 187.997 105.416 189.865 102.621C191.733 99.8251 194.388 97.6462 197.494 96.3595C200.601 95.0728 204.019 94.7361 207.317 95.3921C210.614 96.048 213.643 97.6671 216.021 100.045C218.398 102.422 220.017 105.451 220.673 108.749C221.329 112.047 220.993 115.465 219.706 118.571C218.419 121.677 216.24 124.332 213.445 126.2C210.649 128.068 207.362 129.065 204 129.065C199.491 129.065 195.167 127.274 191.979 124.086C188.791 120.898 187 116.574 187 112.065Z" stroke="white" stroke-width="2"/>
<path d="M187 112.065C187 108.703 187.997 105.416 189.865 102.621C191.733 99.8251 194.388 97.6462 197.494 96.3595C200.601 95.0728 204.019 94.7361 207.317 95.3921C210.614 96.048 213.643 97.6671 216.021 100.045C218.398 102.422 220.017 105.451 220.673 108.749C221.329 112.047 220.993 115.465 219.706 118.571C218.419 121.677 216.24 124.332 213.445 126.2C210.649 128.068 207.362 129.065 204 129.065C199.491 129.065 195.167 127.274 191.979 124.086C188.791 120.898 187 116.574 187 112.065Z" stroke="url(#paint7_linear)" stroke-width="2"/>
<path d="M187.002 66.3122C186.953 62.9399 187.908 59.6292 189.746 56.8013C191.584 53.9734 194.222 51.7561 197.323 50.4315C200.425 49.1068 203.851 48.7347 207.164 49.3625C210.478 49.9903 213.53 51.5896 215.933 53.9569C218.335 56.3243 219.979 59.3526 220.655 62.6568C221.331 65.961 221.009 69.3917 219.73 72.5124C218.451 75.6331 216.272 78.3028 213.472 80.182C210.671 82.0611 207.375 83.0646 204.002 83.065C201.786 83.0812 199.588 82.6608 197.534 81.8277C195.48 80.9946 193.611 79.7651 192.032 78.2095C190.453 76.6538 189.197 74.8025 188.334 72.7611C187.471 70.7198 187.018 68.5284 187.002 66.3122Z" fill="url(#paint8_linear)"/>
<path d="M187.002 66.3122C186.953 62.9399 187.908 59.6292 189.746 56.8013C191.584 53.9734 194.222 51.7561 197.323 50.4315C200.425 49.1068 203.851 48.7347 207.164 49.3625C210.478 49.9903 213.53 51.5896 215.933 53.9569C218.335 56.3243 219.979 59.3526 220.655 62.6568C221.331 65.961 221.009 69.3917 219.73 72.5124C218.451 75.6331 216.272 78.3028 213.472 80.182C210.671 82.0611 207.375 83.0646 204.002 83.065C201.786 83.0812 199.588 82.6608 197.534 81.8277C195.48 80.9946 193.611 79.7651 192.032 78.2095C190.453 76.6538 189.197 74.8025 188.334 72.7611C187.471 70.7198 187.018 68.5284 187.002 66.3122Z" stroke="white" stroke-width="2"/>
<path d="M187.002 66.3122C186.953 62.9399 187.908 59.6292 189.746 56.8013C191.584 53.9734 194.222 51.7561 197.323 50.4315C200.425 49.1068 203.851 48.7347 207.164 49.3625C210.478 49.9903 213.53 51.5896 215.933 53.9569C218.335 56.3243 219.979 59.3526 220.655 62.6568C221.331 65.961 221.009 69.3917 219.73 72.5124C218.451 75.6331 216.272 78.3028 213.472 80.182C210.671 82.0611 207.375 83.0646 204.002 83.065C201.786 83.0812 199.588 82.6608 197.534 81.8277C195.48 80.9946 193.611 79.7651 192.032 78.2095C190.453 76.6538 189.197 74.8025 188.334 72.7611C187.471 70.7198 187.018 68.5284 187.002 66.3122Z" stroke="url(#paint9_linear)" stroke-width="2"/>
<path d="M187.002 20.3122C186.953 16.9399 187.908 13.6292 189.746 10.8013C191.584 7.97337 194.222 5.75608 197.323 4.43146C200.425 3.10683 203.851 2.73475 207.164 3.36253C210.478 3.99032 213.53 5.5896 215.933 7.95693C218.335 10.3243 219.979 13.3526 220.655 16.6568C221.331 19.961 221.009 23.3917 219.73 26.5124C218.451 29.6331 216.272 32.3028 213.472 34.1819C210.671 36.0611 207.375 37.0646 204.002 37.065C201.786 37.0812 199.588 36.6608 197.534 35.8277C195.48 34.9946 193.611 33.7651 192.032 32.2095C190.453 30.6538 189.197 28.8025 188.334 26.7611C187.471 24.7198 187.018 22.5284 187.002 20.3122Z" fill="url(#paint10_linear)"/>
<path d="M187.002 20.3122C186.953 16.9399 187.908 13.6292 189.746 10.8013C191.584 7.97337 194.222 5.75608 197.323 4.43146C200.425 3.10683 203.851 2.73475 207.164 3.36253C210.478 3.99032 213.53 5.5896 215.933 7.95693C218.335 10.3243 219.979 13.3526 220.655 16.6568C221.331 19.961 221.009 23.3917 219.73 26.5124C218.451 29.6331 216.272 32.3028 213.472 34.1819C210.671 36.0611 207.375 37.0646 204.002 37.065C201.786 37.0812 199.588 36.6608 197.534 35.8277C195.48 34.9946 193.611 33.7651 192.032 32.2095C190.453 30.6538 189.197 28.8025 188.334 26.7611C187.471 24.7198 187.018 22.5284 187.002 20.3122Z" stroke="white" stroke-width="2"/>
<path d="M187.002 20.3122C186.953 16.9399 187.908 13.6292 189.746 10.8013C191.584 7.97337 194.222 5.75608 197.323 4.43146C200.425 3.10683 203.851 2.73475 207.164 3.36253C210.478 3.99032 213.53 5.5896 215.933 7.95693C218.335 10.3243 219.979 13.3526 220.655 16.6568C221.331 19.961 221.009 23.3917 219.73 26.5124C218.451 29.6331 216.272 32.3028 213.472 34.1819C210.671 36.0611 207.375 37.0646 204.002 37.065C201.786 37.0812 199.588 36.6608 197.534 35.8277C195.48 34.9946 193.611 33.7651 192.032 32.2095C190.453 30.6538 189.197 28.8025 188.334 26.7611C187.471 24.7198 187.018 22.5284 187.002 20.3122Z" stroke="url(#paint11_linear)" stroke-width="2"/>
<path d="M141 250.336C141.046 247.08 142.054 243.91 143.897 241.225C145.74 238.541 148.337 236.462 151.36 235.25C154.382 234.039 157.696 233.748 160.883 234.416C164.071 235.084 166.989 236.68 169.271 239.003C171.553 241.326 173.097 244.273 173.707 247.471C174.318 250.67 173.968 253.978 172.703 256.978C171.437 259.979 169.312 262.538 166.595 264.333C163.878 266.127 160.69 267.078 157.434 267.065C153.038 267.019 148.84 265.232 145.76 262.096C142.68 258.96 140.968 254.731 141 250.336Z" fill="url(#paint12_linear)"/>
<path d="M141 250.336C141.046 247.08 142.054 243.91 143.897 241.225C145.74 238.541 148.337 236.462 151.36 235.25C154.382 234.039 157.696 233.748 160.883 234.416C164.071 235.084 166.989 236.68 169.271 239.003C171.553 241.326 173.097 244.273 173.707 247.471C174.318 250.67 173.968 253.978 172.703 256.978C171.437 259.979 169.312 262.538 166.595 264.333C163.878 266.127 160.69 267.078 157.434 267.065C153.038 267.019 148.84 265.232 145.76 262.096C142.68 258.96 140.968 254.731 141 250.336Z" stroke="white" stroke-width="2"/>
<path d="M141 250.336C141.046 247.08 142.054 243.91 143.897 241.225C145.74 238.541 148.337 236.462 151.36 235.25C154.382 234.039 157.696 233.748 160.883 234.416C164.071 235.084 166.989 236.68 169.271 239.003C171.553 241.326 173.097 244.273 173.707 247.471C174.318 250.67 173.968 253.978 172.703 256.978C171.437 259.979 169.312 262.538 166.595 264.333C163.878 266.127 160.69 267.078 157.434 267.065C153.038 267.019 148.84 265.232 145.76 262.096C142.68 258.96 140.968 254.731 141 250.336Z" stroke="url(#paint13_linear)" stroke-width="2"/>
<path d="M141 203.579C140.997 200.312 141.965 197.118 143.779 194.401C145.593 191.685 148.173 189.568 151.192 188.319C154.211 187.07 157.532 186.745 160.736 187.386C163.939 188.026 166.88 189.604 169.186 191.917C171.493 194.231 173.06 197.177 173.69 200.383C174.32 203.588 173.985 206.909 172.726 209.923C171.467 212.938 169.342 215.511 166.619 217.316C163.897 219.122 160.699 220.079 157.432 220.065C153.07 220.047 148.893 218.303 145.814 215.214C142.734 212.124 141.004 207.941 141 203.579V203.579Z" stroke="white" stroke-width="2"/>
<path d="M141 203.579C140.997 200.312 141.965 197.118 143.779 194.401C145.593 191.685 148.173 189.568 151.192 188.319C154.211 187.07 157.532 186.745 160.736 187.386C163.939 188.026 166.88 189.604 169.186 191.917C171.493 194.231 173.06 197.177 173.69 200.383C174.32 203.588 173.985 206.909 172.726 209.923C171.467 212.938 169.342 215.511 166.619 217.316C163.897 219.122 160.699 220.079 157.432 220.065C153.07 220.047 148.893 218.303 145.814 215.214C142.734 212.124 141.004 207.941 141 203.579V203.579Z" stroke="url(#paint14_linear)" stroke-width="2"/>
<mask id="path-11-inside-1" fill="white">
<path d="M157.732 130.064C154.262 130.11 150.856 129.123 147.947 127.228C145.039 125.334 142.76 122.617 141.4 119.424C140.04 116.23 139.66 112.704 140.308 109.295C140.957 105.885 142.605 102.745 145.043 100.274C147.481 97.8034 150.598 96.1134 153.999 95.4191C157.4 94.7248 160.931 95.0575 164.142 96.3749C167.353 97.6924 170.1 99.935 172.033 102.818C173.967 105.7 174.999 109.093 175 112.564C175.016 114.847 174.582 117.111 173.723 119.226C172.864 121.342 171.596 123.267 169.992 124.892C168.389 126.517 166.481 127.811 164.377 128.698C162.273 129.585 160.015 130.05 157.732 130.064Z"/>
</mask>
<path d="M175 112.564L173 112.564L173 112.578L175 112.564ZM157.706 128.064C154.632 128.105 151.615 127.231 149.039 125.553L146.856 128.904C150.096 131.015 153.892 132.115 157.759 132.064L157.706 128.064ZM149.039 125.553C146.463 123.874 144.445 121.468 143.24 118.64L139.56 120.207C141.075 123.766 143.615 126.793 146.856 128.904L149.039 125.553ZM143.24 118.64C142.035 115.811 141.699 112.689 142.273 109.668L138.344 108.921C137.621 112.72 138.044 116.649 139.56 120.207L143.24 118.64ZM142.273 109.668C142.848 106.648 144.307 103.867 146.467 101.679L143.619 98.8694C140.903 101.623 139.067 105.121 138.344 108.921L142.273 109.668ZM146.467 101.679C148.626 99.4905 151.387 97.9937 154.399 97.3787L153.599 93.4595C149.81 94.2332 146.336 96.1163 143.619 98.8694L146.467 101.679ZM154.399 97.3787C157.412 96.7637 160.538 97.0584 163.383 98.2253L164.901 94.5246C161.323 93.0566 157.389 92.6859 153.599 93.4595L154.399 97.3787ZM163.383 98.2253C166.227 99.3921 168.66 101.378 170.372 103.932L173.694 101.704C171.54 98.4915 168.479 95.9926 164.901 94.5246L163.383 98.2253ZM170.372 103.932C172.085 106.485 172.999 109.49 173 112.564L177 112.564C176.999 108.696 175.849 104.916 173.694 101.704L170.372 103.932ZM173 112.578C173.014 114.598 172.63 116.602 171.87 118.474L175.576 119.979C176.534 117.62 177.018 115.096 177 112.55L173 112.578ZM171.87 118.474C171.11 120.346 169.988 122.049 168.569 123.487L171.416 126.297C173.204 124.485 174.618 122.338 175.576 119.979L171.87 118.474ZM168.569 123.487C167.15 124.926 165.461 126.07 163.6 126.855L165.154 130.541C167.5 129.551 169.628 128.109 171.416 126.297L168.569 123.487ZM163.6 126.855C161.738 127.641 159.74 128.051 157.72 128.064L157.745 132.064C160.291 132.048 162.809 131.53 165.154 130.541L163.6 126.855Z" fill="white" mask="url(#path-11-inside-1)"/>
<path d="M175 112.564L173 112.564L173 112.578L175 112.564ZM157.706 128.064C154.632 128.105 151.615 127.231 149.039 125.553L146.856 128.904C150.096 131.015 153.892 132.115 157.759 132.064L157.706 128.064ZM149.039 125.553C146.463 123.874 144.445 121.468 143.24 118.64L139.56 120.207C141.075 123.766 143.615 126.793 146.856 128.904L149.039 125.553ZM143.24 118.64C142.035 115.811 141.699 112.689 142.273 109.668L138.344 108.921C137.621 112.72 138.044 116.649 139.56 120.207L143.24 118.64ZM142.273 109.668C142.848 106.648 144.307 103.867 146.467 101.679L143.619 98.8694C140.903 101.623 139.067 105.121 138.344 108.921L142.273 109.668ZM146.467 101.679C148.626 99.4905 151.387 97.9937 154.399 97.3787L153.599 93.4595C149.81 94.2332 146.336 96.1163 143.619 98.8694L146.467 101.679ZM154.399 97.3787C157.412 96.7637 160.538 97.0584 163.383 98.2253L164.901 94.5246C161.323 93.0566 157.389 92.6859 153.599 93.4595L154.399 97.3787ZM163.383 98.2253C166.227 99.3921 168.66 101.378 170.372 103.932L173.694 101.704C171.54 98.4915 168.479 95.9926 164.901 94.5246L163.383 98.2253ZM170.372 103.932C172.085 106.485 172.999 109.49 173 112.564L177 112.564C176.999 108.696 175.849 104.916 173.694 101.704L170.372 103.932ZM173 112.578C173.014 114.598 172.63 116.602 171.87 118.474L175.576 119.979C176.534 117.62 177.018 115.096 177 112.55L173 112.578ZM171.87 118.474C171.11 120.346 169.988 122.049 168.569 123.487L171.416 126.297C173.204 124.485 174.618 122.338 175.576 119.979L171.87 118.474ZM168.569 123.487C167.15 124.926 165.461 126.07 163.6 126.855L165.154 130.541C167.5 129.551 169.628 128.109 171.416 126.297L168.569 123.487ZM163.6 126.855C161.738 127.641 159.74 128.051 157.72 128.064L157.745 132.064C160.291 132.048 162.809 131.53 165.154 130.541L163.6 126.855Z" fill="url(#paint15_linear)" mask="url(#path-11-inside-1)"/>
<path d="M158.5 83.0654C155.237 83.0654 152.047 82.0977 149.333 80.2847C146.62 78.4716 144.505 75.8947 143.256 72.8797C142.007 69.8647 141.68 66.5471 142.317 63.3464C142.954 60.1458 144.525 57.2057 146.833 54.8982C149.14 52.5906 152.08 51.0191 155.281 50.3825C158.482 49.7458 161.799 50.0726 164.814 51.3214C167.829 52.5703 170.406 54.6851 172.219 57.3985C174.032 60.1119 175 63.302 175 66.5654C175 70.9415 173.262 75.1383 170.167 78.2327C167.073 81.327 162.876 83.0654 158.5 83.0654Z" stroke="white" stroke-width="2"/>
<path d="M158.5 83.0654C155.237 83.0654 152.047 82.0977 149.333 80.2847C146.62 78.4716 144.505 75.8947 143.256 72.8797C142.007 69.8647 141.68 66.5471 142.317 63.3464C142.954 60.1458 144.525 57.2057 146.833 54.8982C149.14 52.5906 152.08 51.0191 155.281 50.3825C158.482 49.7458 161.799 50.0726 164.814 51.3214C167.829 52.5703 170.406 54.6851 172.219 57.3985C174.032 60.1119 175 63.302 175 66.5654C175 70.9415 173.262 75.1383 170.167 78.2327C167.073 81.327 162.876 83.0654 158.5 83.0654Z" stroke="url(#paint16_linear)" stroke-width="2"/>
<path d="M158.501 37.0654H158.5C155.236 37.0654 152.045 36.0974 149.332 34.2838C146.618 32.4701 144.503 29.8924 143.255 26.8767C142.006 23.8609 141.68 20.5427 142.318 17.3416C142.956 14.1406 144.528 11.2006 146.837 8.89355C149.146 6.5865 152.087 5.01607 155.289 4.38089C158.491 3.74571 161.809 4.07433 164.823 5.32518C167.838 6.57603 170.414 8.69291 172.226 11.408C174.037 14.1232 175.003 17.3146 175 20.5785V20.5793C175 22.7454 174.573 24.8902 173.744 26.8913C172.914 28.8923 171.699 30.7103 170.167 32.2414C168.634 33.7724 166.815 34.9865 164.814 35.8142C162.812 36.642 160.667 37.0671 158.501 37.0654Z" stroke="white" stroke-width="2"/>
<path d="M158.501 37.0654H158.5C155.236 37.0654 152.045 36.0974 149.332 34.2838C146.618 32.4701 144.503 29.8924 143.255 26.8767C142.006 23.8609 141.68 20.5427 142.318 17.3416C142.956 14.1406 144.528 11.2006 146.837 8.89355C149.146 6.5865 152.087 5.01607 155.289 4.38089C158.491 3.74571 161.809 4.07433 164.823 5.32518C167.838 6.57603 170.414 8.69291 172.226 11.408C174.037 14.1232 175.003 17.3146 175 20.5785V20.5793C175 22.7454 174.573 24.8902 173.744 26.8913C172.914 28.8923 171.699 30.7103 170.167 32.2414C168.634 33.7724 166.815 34.9865 164.814 35.8142C162.812 36.642 160.667 37.0671 158.501 37.0654Z" stroke="url(#paint17_linear)" stroke-width="2"/>
<mask id="path-15-inside-2" fill="white">
<path d="M112.514 222.065C109.052 222.068 105.666 221.044 102.786 219.122C99.9062 217.2 97.661 214.467 96.3348 211.269C95.0085 208.071 94.6608 204.551 95.3356 201.155C96.0104 197.759 97.6774 194.639 100.126 192.191C102.574 189.743 105.693 188.076 109.089 187.401C112.485 186.726 116.005 187.074 119.203 188.4C122.402 189.726 125.135 191.972 127.056 194.852C128.978 197.732 130.003 201.117 130 204.579C130 206.876 129.548 209.149 128.669 211.271C127.79 213.392 126.502 215.32 124.878 216.944C123.255 218.568 121.327 219.856 119.206 220.734C117.084 221.613 114.81 222.065 112.514 222.065Z"/>
</mask>
<path d="M130 204.579L128 204.578V204.579H130ZM112.512 220.065C109.446 220.068 106.447 219.161 103.896 217.458L101.676 220.786C104.885 222.927 108.657 224.068 112.515 224.065L112.512 220.065ZM103.896 217.458C101.345 215.756 99.3569 213.335 98.1822 210.503L94.4873 212.035C95.9651 215.599 98.4669 218.644 101.676 220.786L103.896 217.458ZM98.1822 210.503C97.0075 207.67 96.6996 204.552 97.2972 201.545L93.3739 200.765C92.622 204.549 93.0095 208.471 94.4873 212.035L98.1822 210.503ZM97.2972 201.545C97.8949 198.537 99.3714 195.774 101.54 193.605L98.7114 190.777C95.9834 193.505 94.1259 196.981 93.3739 200.765L97.2972 201.545ZM101.54 193.605C103.708 191.437 106.471 189.96 109.479 189.363L108.7 185.439C104.915 186.191 101.439 188.049 98.7114 190.777L101.54 193.605ZM109.479 189.363C112.487 188.765 115.604 189.073 118.437 190.248L119.969 186.553C116.406 185.075 112.484 184.687 108.7 185.439L109.479 189.363ZM118.437 190.248C121.27 191.422 123.691 193.411 125.393 195.962L128.72 193.741C126.579 190.532 123.533 188.031 119.969 186.553L118.437 190.248ZM125.393 195.962C127.095 198.513 128.002 201.511 128 204.578L132 204.581C132.003 200.723 130.862 196.951 128.72 193.741L125.393 195.962ZM128 204.579C128 206.613 127.599 208.627 126.821 210.506L130.517 212.036C131.496 209.672 132 207.138 132 204.579H128ZM126.821 210.506C126.043 212.384 124.902 214.092 123.464 215.53L126.293 218.358C128.102 216.549 129.537 214.4 130.517 212.036L126.821 210.506ZM123.464 215.53C122.026 216.968 120.319 218.108 118.44 218.887L119.971 222.582C122.335 221.603 124.483 220.168 126.293 218.358L123.464 215.53ZM118.44 218.887C116.561 219.665 114.548 220.065 112.514 220.065V224.065C115.073 224.065 117.607 223.561 119.971 222.582L118.44 218.887Z" fill="white" mask="url(#path-15-inside-2)"/>
<path d="M130 204.579L128 204.578V204.579H130ZM112.512 220.065C109.446 220.068 106.447 219.161 103.896 217.458L101.676 220.786C104.885 222.927 108.657 224.068 112.515 224.065L112.512 220.065ZM103.896 217.458C101.345 215.756 99.3569 213.335 98.1822 210.503L94.4873 212.035C95.9651 215.599 98.4669 218.644 101.676 220.786L103.896 217.458ZM98.1822 210.503C97.0075 207.67 96.6996 204.552 97.2972 201.545L93.3739 200.765C92.622 204.549 93.0095 208.471 94.4873 212.035L98.1822 210.503ZM97.2972 201.545C97.8949 198.537 99.3714 195.774 101.54 193.605L98.7114 190.777C95.9834 193.505 94.1259 196.981 93.3739 200.765L97.2972 201.545ZM101.54 193.605C103.708 191.437 106.471 189.96 109.479 189.363L108.7 185.439C104.915 186.191 101.439 188.049 98.7114 190.777L101.54 193.605ZM109.479 189.363C112.487 188.765 115.604 189.073 118.437 190.248L119.969 186.553C116.406 185.075 112.484 184.687 108.7 185.439L109.479 189.363ZM118.437 190.248C121.27 191.422 123.691 193.411 125.393 195.962L128.72 193.741C126.579 190.532 123.533 188.031 119.969 186.553L118.437 190.248ZM125.393 195.962C127.095 198.513 128.002 201.511 128 204.578L132 204.581C132.003 200.723 130.862 196.951 128.72 193.741L125.393 195.962ZM128 204.579C128 206.613 127.599 208.627 126.821 210.506L130.517 212.036C131.496 209.672 132 207.138 132 204.579H128ZM126.821 210.506C126.043 212.384 124.902 214.092 123.464 215.53L126.293 218.358C128.102 216.549 129.537 214.4 130.517 212.036L126.821 210.506ZM123.464 215.53C122.026 216.968 120.319 218.108 118.44 218.887L119.971 222.582C122.335 221.603 124.483 220.168 126.293 218.358L123.464 215.53ZM118.44 218.887C116.561 219.665 114.548 220.065 112.514 220.065V224.065C115.073 224.065 117.607 223.561 119.971 222.582L118.44 218.887Z" fill="url(#paint18_linear)" mask="url(#path-15-inside-2)"/>
<mask id="path-17-inside-3" fill="white">
<path d="M112.514 176.065C109.052 176.068 105.667 175.044 102.788 173.123C99.9079 171.202 97.6628 168.469 96.3361 165.272C95.0094 162.075 94.6609 158.555 95.3346 155.16C96.0082 151.764 97.6739 148.645 100.121 146.196C102.568 143.747 105.686 142.079 109.081 141.403C112.476 140.726 115.995 141.072 119.194 142.396C122.392 143.72 125.126 145.963 127.05 148.842C128.973 151.72 130 155.104 130 158.565C130 163.204 128.158 167.653 124.879 170.935C121.6 174.216 117.153 176.062 112.514 176.065Z"/>
</mask>
<path d="M130 158.565H132H130ZM112.512 174.065C109.446 174.068 106.448 173.161 103.898 171.459L101.678 174.787C104.886 176.927 108.658 178.068 112.515 178.065L112.512 174.065ZM103.898 171.459C101.347 169.758 99.3584 167.338 98.1834 164.506L94.4888 166.038C95.9671 169.601 98.4688 172.646 101.678 174.787L103.898 171.459ZM98.1834 164.506C97.0084 161.673 96.6997 158.557 97.2963 155.549L93.3728 154.771C92.6221 158.554 93.0105 162.476 94.4888 166.038L98.1834 164.506ZM97.2963 155.549C97.893 152.542 99.3683 149.779 101.536 147.61L98.706 144.782C95.9795 147.511 94.1235 150.987 93.3728 154.771L97.2963 155.549ZM101.536 147.61C103.703 145.441 106.465 143.963 109.472 143.364L108.69 139.441C104.907 140.195 101.432 142.054 98.706 144.782L101.536 147.61ZM109.472 143.364C112.479 142.765 115.596 143.071 118.429 144.244L119.959 140.548C116.395 139.073 112.473 138.688 108.69 139.441L109.472 143.364ZM118.429 144.244C121.262 145.417 123.683 147.404 125.387 149.953L128.713 147.73C126.569 144.523 123.523 142.024 119.959 140.548L118.429 144.244ZM125.387 149.953C127.091 152.502 128 155.499 128 158.565H132C132 154.708 130.856 150.937 128.713 147.73L125.387 149.953ZM128 158.565C128 162.674 126.369 166.615 123.464 169.521L126.294 172.349C129.948 168.692 132 163.734 132 158.565H128ZM123.464 169.521C120.56 172.428 116.621 174.062 112.512 174.065L112.515 178.065C117.685 178.061 122.64 176.005 126.294 172.349L123.464 169.521Z" fill="white" mask="url(#path-17-inside-3)"/>
<path d="M130 158.565H132H130ZM112.512 174.065C109.446 174.068 106.448 173.161 103.898 171.459L101.678 174.787C104.886 176.927 108.658 178.068 112.515 178.065L112.512 174.065ZM103.898 171.459C101.347 169.758 99.3584 167.338 98.1834 164.506L94.4888 166.038C95.9671 169.601 98.4688 172.646 101.678 174.787L103.898 171.459ZM98.1834 164.506C97.0084 161.673 96.6997 158.557 97.2963 155.549L93.3728 154.771C92.6221 158.554 93.0105 162.476 94.4888 166.038L98.1834 164.506ZM97.2963 155.549C97.893 152.542 99.3683 149.779 101.536 147.61L98.706 144.782C95.9795 147.511 94.1235 150.987 93.3728 154.771L97.2963 155.549ZM101.536 147.61C103.703 145.441 106.465 143.963 109.472 143.364L108.69 139.441C104.907 140.195 101.432 142.054 98.706 144.782L101.536 147.61ZM109.472 143.364C112.479 142.765 115.596 143.071 118.429 144.244L119.959 140.548C116.395 139.073 112.473 138.688 108.69 139.441L109.472 143.364ZM118.429 144.244C121.262 145.417 123.683 147.404 125.387 149.953L128.713 147.73C126.569 144.523 123.523 142.024 119.959 140.548L118.429 144.244ZM125.387 149.953C127.091 152.502 128 155.499 128 158.565H132C132 154.708 130.856 150.937 128.713 147.73L125.387 149.953ZM128 158.565C128 162.674 126.369 166.615 123.464 169.521L126.294 172.349C129.948 168.692 132 163.734 132 158.565H128ZM123.464 169.521C120.56 172.428 116.621 174.062 112.512 174.065L112.515 178.065C117.685 178.061 122.64 176.005 126.294 172.349L123.464 169.521Z" fill="url(#paint19_linear)" mask="url(#path-17-inside-3)"/>
<path d="M112.5 129.065C121.613 129.065 129 121.454 129 112.065C129 102.677 121.613 95.0654 112.5 95.0654C103.387 95.0654 96 102.677 96 112.065C96 121.454 103.387 129.065 112.5 129.065Z" fill="url(#paint20_linear)"/>
<path d="M112.5 129.065C121.613 129.065 129 121.454 129 112.065C129 102.677 121.613 95.0654 112.5 95.0654C103.387 95.0654 96 102.677 96 112.065C96 121.454 103.387 129.065 112.5 129.065Z" stroke="white" stroke-width="2"/>
<path d="M112.5 129.065C121.613 129.065 129 121.454 129 112.065C129 102.677 121.613 95.0654 112.5 95.0654C103.387 95.0654 96 102.677 96 112.065C96 121.454 103.387 129.065 112.5 129.065Z" stroke="url(#paint21_linear)" stroke-width="2"/>
<path d="M127.866 69.4124C129.916 60.5332 124.38 51.6733 115.5 49.6232C106.621 47.5731 97.7616 53.1092 95.7117 61.9883C93.6618 70.8675 99.1979 79.7274 108.077 81.7775C116.956 83.8276 125.816 78.2915 127.866 69.4124Z" stroke="white" stroke-width="2"/>
<path d="M127.866 69.4124C129.916 60.5332 124.38 51.6733 115.5 49.6232C106.621 47.5731 97.7616 53.1092 95.7117 61.9883C93.6618 70.8675 99.1979 79.7274 108.077 81.7775C116.956 83.8276 125.816 78.2915 127.866 69.4124Z" stroke="url(#paint22_linear)" stroke-width="2"/>
<path d="M112.514 37.0654H112.513C109.249 37.068 106.057 36.1022 103.341 34.2901C100.626 32.4781 98.509 29.9013 97.2585 26.8857C96.008 23.8702 95.6802 20.5516 96.3164 17.3497C96.9527 14.1477 98.5244 11.2065 100.833 8.89817C103.141 6.58982 106.082 5.01808 109.284 4.38184C112.486 3.7456 115.805 4.07346 118.82 5.32393C121.836 6.57439 124.413 8.69126 126.225 11.4067C128.037 14.1221 129.003 17.314 129 20.5785V20.5793C129 22.7443 128.574 24.8881 127.745 26.8883C126.917 28.8885 125.702 30.7059 124.171 32.2367C122.64 33.7676 120.823 34.982 118.823 35.8105C116.823 36.639 114.679 37.0654 112.514 37.0654ZM130 20.5793C130 22.8756 129.548 25.1494 128.669 27.2709C127.79 29.3925 126.502 31.3201 124.878 32.9439C123.255 34.5676 121.327 35.8556 119.206 36.7344C117.084 37.6131 114.81 38.0654 112.514 38.0654L130 20.5793Z" stroke="white" stroke-width="2"/>
<path d="M112.514 37.0654H112.513C109.249 37.068 106.057 36.1022 103.341 34.2901C100.626 32.4781 98.509 29.9013 97.2585 26.8857C96.008 23.8702 95.6802 20.5516 96.3164 17.3497C96.9527 14.1477 98.5244 11.2065 100.833 8.89817C103.141 6.58982 106.082 5.01808 109.284 4.38184C112.486 3.7456 115.805 4.07346 118.82 5.32393C121.836 6.57439 124.413 8.69126 126.225 11.4067C128.037 14.1221 129.003 17.314 129 20.5785V20.5793C129 22.7443 128.574 24.8881 127.745 26.8883C126.917 28.8885 125.702 30.7059 124.171 32.2367C122.64 33.7676 120.823 34.982 118.823 35.8105C116.823 36.639 114.679 37.0654 112.514 37.0654ZM130 20.5793C130 22.8756 129.548 25.1494 128.669 27.2709C127.79 29.3925 126.502 31.3201 124.878 32.9439C123.255 34.5676 121.327 35.8556 119.206 36.7344C117.084 37.6131 114.81 38.0654 112.514 38.0654L130 20.5793Z" stroke="url(#paint23_linear)" stroke-width="2"/>
<path d="M66 220.065C75.3888 220.065 83 212.678 83 203.565C83 194.453 75.3888 187.065 66 187.065C56.6112 187.065 49 194.453 49 203.565C49 212.678 56.6112 220.065 66 220.065Z" stroke="white" stroke-width="2"/>
<path d="M66 220.065C75.3888 220.065 83 212.678 83 203.565C83 194.453 75.3888 187.065 66 187.065C56.6112 187.065 49 194.453 49 203.565C49 212.678 56.6112 220.065 66 220.065Z" stroke="url(#paint24_linear)" stroke-width="2"/>
<path d="M66 129.065C75.3888 129.065 83 121.454 83 112.065C83 102.677 75.3888 95.0654 66 95.0654C56.6112 95.0654 49 102.677 49 112.065C49 121.454 56.6112 129.065 66 129.065Z" stroke="white" stroke-width="2"/>
<path d="M66 129.065C75.3888 129.065 83 121.454 83 112.065C83 102.677 75.3888 95.0654 66 95.0654C56.6112 95.0654 49 102.677 49 112.065C49 121.454 56.6112 129.065 66 129.065Z" stroke="url(#paint25_linear)" stroke-width="2"/>
<path d="M66 82.0654C75.3888 82.0654 83 74.6781 83 65.5654C83 56.4527 75.3888 49.0654 66 49.0654C56.6112 49.0654 49 56.4527 49 65.5654C49 74.6781 56.6112 82.0654 66 82.0654Z" stroke="white" stroke-width="2"/>
<path d="M66 82.0654C75.3888 82.0654 83 74.6781 83 65.5654C83 56.4527 75.3888 49.0654 66 49.0654C56.6112 49.0654 49 56.4527 49 65.5654C49 74.6781 56.6112 82.0654 66 82.0654Z" stroke="url(#paint26_linear)" stroke-width="2"/>
<path d="M19.5 220.065C28.6127 220.065 36 212.678 36 203.565C36 194.453 28.6127 187.065 19.5 187.065C10.3873 187.065 3 194.453 3 203.565C3 212.678 10.3873 220.065 19.5 220.065Z" stroke="white" stroke-width="2"/>
<path d="M19.5 220.065C28.6127 220.065 36 212.678 36 203.565C36 194.453 28.6127 187.065 19.5 187.065C10.3873 187.065 3 194.453 3 203.565C3 212.678 10.3873 220.065 19.5 220.065Z" stroke="url(#paint27_linear)" stroke-width="2"/>
<path d="M3.00001 157.552C3.00268 154.289 3.97266 151.1 5.78732 148.389C7.60199 145.677 10.1799 143.564 13.1951 142.318C16.2103 141.071 19.5275 140.746 22.7273 141.384C25.9271 142.022 28.8658 143.595 31.172 145.903C33.4782 148.211 35.0484 151.151 35.6839 154.351C36.3195 157.552 35.992 160.869 34.7427 163.883C33.4935 166.897 31.3786 169.473 28.6655 171.286C25.9524 173.098 22.7628 174.065 19.5 174.065C17.3321 174.065 15.1854 173.638 13.1826 172.808C11.1799 171.978 9.3603 170.762 7.82796 169.228C6.29561 167.694 5.08052 165.874 4.25211 163.87C3.42371 161.867 2.99823 159.72 3.00001 157.552V157.552Z" stroke="white" stroke-width="2"/>
<path d="M3.00001 157.552C3.00268 154.289 3.97266 151.1 5.78732 148.389C7.60199 145.677 10.1799 143.564 13.1951 142.318C16.2103 141.071 19.5275 140.746 22.7273 141.384C25.9271 142.022 28.8658 143.595 31.172 145.903C33.4782 148.211 35.0484 151.151 35.6839 154.351C36.3195 157.552 35.992 160.869 34.7427 163.883C33.4935 166.897 31.3786 169.473 28.6655 171.286C25.9524 173.098 22.7628 174.065 19.5 174.065C17.3321 174.065 15.1854 173.638 13.1826 172.808C11.1799 171.978 9.3603 170.762 7.82796 169.228C6.29561 167.694 5.08052 165.874 4.25211 163.87C3.42371 161.867 2.99823 159.72 3.00001 157.552V157.552Z" stroke="url(#paint28_linear)" stroke-width="2"/>
<path d="M19.5 82.0654C28.6127 82.0654 36 74.6781 36 65.5654C36 56.4527 28.6127 49.0654 19.5 49.0654C10.3873 49.0654 3 56.4527 3 65.5654C3 74.6781 10.3873 82.0654 19.5 82.0654Z" stroke="white" stroke-width="2"/>
<path d="M19.5 82.0654C28.6127 82.0654 36 74.6781 36 65.5654C36 56.4527 28.6127 49.0654 19.5 49.0654C10.3873 49.0654 3 56.4527 3 65.5654C3 74.6781 10.3873 82.0654 19.5 82.0654Z" stroke="url(#paint29_linear)" stroke-width="2"/>
<path d="M35.8658 24.4124C37.9157 15.5332 32.3795 6.67334 23.5004 4.62324C14.6213 2.57315 5.7616 8.10918 3.71169 16.9883C1.66178 25.8675 7.19793 34.7274 16.077 36.7775C24.9561 38.8276 33.8158 33.2915 35.8658 24.4124Z" stroke="white" stroke-width="2"/>
<path d="M35.8658 24.4124C37.9157 15.5332 32.3795 6.67334 23.5004 4.62324C14.6213 2.57315 5.7616 8.10918 3.71169 16.9883C1.66178 25.8675 7.19793 34.7274 16.077 36.7775C24.9561 38.8276 33.8158 33.2915 35.8658 24.4124Z" stroke="url(#paint30_linear)" stroke-width="2"/>
<defs>
<linearGradient id="paint0_linear" x1="250.5" y1="234.065" x2="250.5" y2="267.065" gradientUnits="userSpaceOnUse">
<stop stop-color="#E1A352"/>
<stop offset="1" stop-color="#E3A655"/>
</linearGradient>
<linearGradient id="paint1_linear" x1="250.5" y1="141.065" x2="250.5" y2="174.065" gradientUnits="userSpaceOnUse">
<stop stop-color="#EAA853"/>
<stop offset="1" stop-color="#E7A652"/>
</linearGradient>
<linearGradient id="paint2_linear" x1="250.5" y1="141.065" x2="250.5" y2="174.065" gradientUnits="userSpaceOnUse">
<stop stop-color="#E1A352"/>
<stop offset="1" stop-color="#E3A655"/>
</linearGradient>
<linearGradient id="paint3_linear" x1="250.5" y1="3.06543" x2="250.5" y2="36.0654" gradientUnits="userSpaceOnUse">
<stop stop-color="#E1A352"/>
<stop offset="1" stop-color="#E3A655"/>
</linearGradient>
<linearGradient id="paint4_linear" x1="204" y1="233.065" x2="204" y2="267.065" gradientUnits="userSpaceOnUse">
<stop stop-color="#E1A352"/>
<stop offset="1" stop-color="#E3A655"/>
</linearGradient>
<linearGradient id="paint5_linear" x1="204" y1="141.065" x2="204" y2="175.065" gradientUnits="userSpaceOnUse">
<stop stop-color="#E1A352"/>
<stop offset="1" stop-color="#E3A655"/>
</linearGradient>
<linearGradient id="paint6_linear" x1="204" y1="95.0654" x2="204" y2="129.065" gradientUnits="userSpaceOnUse">
<stop stop-color="#EAA853"/>
<stop offset="1" stop-color="#E7A652"/>
</linearGradient>
<linearGradient id="paint7_linear" x1="204" y1="95.0654" x2="204" y2="129.065" gradientUnits="userSpaceOnUse">
<stop stop-color="#E1A352"/>
<stop offset="1" stop-color="#E3A655"/>
</linearGradient>
<linearGradient id="paint8_linear" x1="204" y1="49.0654" x2="204" y2="83.0654" gradientUnits="userSpaceOnUse">
<stop stop-color="#EAA853"/>
<stop offset="1" stop-color="#E7A652"/>
</linearGradient>
<linearGradient id="paint9_linear" x1="204" y1="49.0654" x2="204" y2="83.0654" gradientUnits="userSpaceOnUse">
<stop stop-color="#E1A352"/>
<stop offset="1" stop-color="#E3A655"/>
</linearGradient>
<linearGradient id="paint10_linear" x1="204" y1="3.06543" x2="204" y2="37.0654" gradientUnits="userSpaceOnUse">
<stop stop-color="#EAA853"/>
<stop offset="1" stop-color="#E7A652"/>
</linearGradient>
<linearGradient id="paint11_linear" x1="204" y1="3.06543" x2="204" y2="37.0654" gradientUnits="userSpaceOnUse">
<stop stop-color="#E1A352"/>
<stop offset="1" stop-color="#E3A655"/>
</linearGradient>
<linearGradient id="paint12_linear" x1="157.5" y1="234.065" x2="157.5" y2="267.065" gradientUnits="userSpaceOnUse">
<stop stop-color="#EAA853"/>
<stop offset="1" stop-color="#E7A652"/>
</linearGradient>
<linearGradient id="paint13_linear" x1="157.5" y1="234.065" x2="157.5" y2="267.065" gradientUnits="userSpaceOnUse">
<stop stop-color="#E1A352"/>
<stop offset="1" stop-color="#E3A655"/>
</linearGradient>
<linearGradient id="paint14_linear" x1="157.5" y1="187.065" x2="157.5" y2="220.065" gradientUnits="userSpaceOnUse">
<stop stop-color="#E1A352"/>
<stop offset="1" stop-color="#E3A655"/>
</linearGradient>
<linearGradient id="paint15_linear" x1="157.5" y1="95.0654" x2="157.5" y2="130.065" gradientUnits="userSpaceOnUse">
<stop stop-color="#E1A352"/>
<stop offset="1" stop-color="#E3A655"/>
</linearGradient>
<linearGradient id="paint16_linear" x1="158.5" y1="49.0654" x2="158.5" y2="84.0654" gradientUnits="userSpaceOnUse">
<stop stop-color="#E1A352"/>
<stop offset="1" stop-color="#E3A655"/>
</linearGradient>
<linearGradient id="paint17_linear" x1="158.5" y1="3.06543" x2="158.5" y2="38.0654" gradientUnits="userSpaceOnUse">
<stop stop-color="#E1A352"/>
<stop offset="1" stop-color="#E3A655"/>
</linearGradient>
<linearGradient id="paint18_linear" x1="112.5" y1="187.065" x2="112.5" y2="222.065" gradientUnits="userSpaceOnUse">
<stop stop-color="#E1A352"/>
<stop offset="1" stop-color="#E3A655"/>
</linearGradient>
<linearGradient id="paint19_linear" x1="112.5" y1="141.065" x2="112.5" y2="176.065" gradientUnits="userSpaceOnUse">
<stop stop-color="#E1A352"/>
<stop offset="1" stop-color="#E3A655"/>
</linearGradient>
<linearGradient id="paint20_linear" x1="112.5" y1="95.0654" x2="112.5" y2="129.065" gradientUnits="userSpaceOnUse">
<stop stop-color="#EAA853"/>
<stop offset="1" stop-color="#E7A652"/>
</linearGradient>
<linearGradient id="paint21_linear" x1="112.5" y1="95.0654" x2="112.5" y2="129.065" gradientUnits="userSpaceOnUse">
<stop stop-color="#E1A352"/>
<stop offset="1" stop-color="#E3A655"/>
</linearGradient>
<linearGradient id="paint22_linear" x1="95.7117" y1="61.9883" x2="127.866" y2="69.4117" gradientUnits="userSpaceOnUse">
<stop stop-color="#E1A352"/>
<stop offset="1" stop-color="#E3A655"/>
</linearGradient>
<linearGradient id="paint23_linear" x1="112.5" y1="3.06543" x2="112.5" y2="38.0654" gradientUnits="userSpaceOnUse">
<stop stop-color="#E1A352"/>
<stop offset="1" stop-color="#E3A655"/>
</linearGradient>
<linearGradient id="paint24_linear" x1="66" y1="187.065" x2="66" y2="220.065" gradientUnits="userSpaceOnUse">
<stop stop-color="#E1A352"/>
<stop offset="1" stop-color="#E3A655"/>
</linearGradient>
<linearGradient id="paint25_linear" x1="66" y1="95.0654" x2="66" y2="129.065" gradientUnits="userSpaceOnUse">
<stop stop-color="#E1A352"/>
<stop offset="1" stop-color="#E3A655"/>
</linearGradient>
<linearGradient id="paint26_linear" x1="66" y1="49.0654" x2="66" y2="82.0654" gradientUnits="userSpaceOnUse">
<stop stop-color="#E1A352"/>
<stop offset="1" stop-color="#E3A655"/>
</linearGradient>
<linearGradient id="paint27_linear" x1="19.5" y1="187.065" x2="19.5" y2="220.065" gradientUnits="userSpaceOnUse">
<stop stop-color="#E1A352"/>
<stop offset="1" stop-color="#E3A655"/>
</linearGradient>
<linearGradient id="paint28_linear" x1="19.5" y1="141.065" x2="19.5" y2="174.065" gradientUnits="userSpaceOnUse">
<stop stop-color="#E1A352"/>
<stop offset="1" stop-color="#E3A655"/>
</linearGradient>
<linearGradient id="paint29_linear" x1="19.5" y1="49.0654" x2="19.5" y2="82.0654" gradientUnits="userSpaceOnUse">
<stop stop-color="#E1A352"/>
<stop offset="1" stop-color="#E3A655"/>
</linearGradient>
<linearGradient id="paint30_linear" x1="3.71169" y1="16.9883" x2="35.8659" y2="24.4117" gradientUnits="userSpaceOnUse">
<stop stop-color="#E1A352"/>
<stop offset="1" stop-color="#E3A655"/>
</linearGradient>
</defs>
</svg>
