<svg width="21" height="22" viewBox="0 0 21 22" fill="none" xmlns="http://www.w3.org/2000/svg">
<g clip-path="url(#clip0)">
<rect x="0.541176" y="1.06974" width="19.4824" height="19.4824" rx="9.74118" fill="white" stroke="white" stroke-width="1.08235"/>
<path d="M10.0924 13.7273H8.58943L6.91543 11.2883H6.00643V13.7273H4.74643V7.42729H7.55443C7.96843 7.42729 8.34043 7.49029 8.67043 7.61629C9.00043 7.73629 9.27643 7.94929 9.49843 8.25529C9.72043 8.56129 9.83143 8.93929 9.83143 9.38929C9.83143 9.93529 9.68743 10.3583 9.39943 10.6583C9.11143 10.9583 8.72443 11.1503 8.23843 11.2343L10.0924 13.7273ZM6.00643 8.43529V10.3433H7.40143C7.76743 10.3433 8.05243 10.2623 8.25643 10.1003C8.46643 9.93829 8.57143 9.70129 8.57143 9.38929C8.57143 9.07729 8.46643 8.84029 8.25643 8.67829C8.05243 8.51629 7.76743 8.43529 7.40143 8.43529H6.00643ZM10.9339 11.2793V7.42729H12.1939V11.1893C12.1939 12.2633 12.6589 12.8003 13.5889 12.8003C14.0689 12.8003 14.4199 12.6683 14.6419 12.4043C14.8699 12.1343 14.9839 11.7293 14.9839 11.1893V7.42729H16.2439V11.2793C16.2439 12.9833 15.3589 13.8353 13.5889 13.8353C11.8189 13.8353 10.9339 12.9833 10.9339 11.2793Z" fill="#1822B7"/>
</g>
<defs>
<clipPath id="clip0">
<rect width="20.5647" height="20.5647" fill="white" transform="translate(0 0.528564)"/>
</clipPath>
</defs>
</svg>
